<?xml version="1.0" encoding="iso-8859-1"?>
<!-- Generator: Adobe Illustrator 19.0.0, SVG Export Plug-In . SVG Version: 6.00 Build 0)  -->
<svg version="1.1" id="Capa_1" xmlns="http://www.w3.org/2000/svg" xmlns:xlink="http://www.w3.org/1999/xlink" x="0px" y="0px"
	 viewBox="0 0 480 480" style="enable-background:new 0 0 480 480;" xml:space="preserve">
<linearGradient id="SVGID_1_" gradientUnits="userSpaceOnUse" x1="-50.938" y1="587.5826" x2="12.175" y2="587.5826" gradientTransform="matrix(8 0 0 -8 399 4941)">
	<stop  offset="0" style="stop-color:#BC4E9C"/>
	<stop  offset="1" style="stop-color:#F80759"/>
</linearGradient>
<path style="fill:url(#SVGID_1_);" d="M64,147.824c-0.3,24.411,12.166,47.208,32.88,60.128l32,272.048h238.232l32-272.048
	c20.717-12.918,33.186-35.715,32.888-60.128c0.947-33.683-23.13-62.889-56.376-68.384C373.248,45.718,345.786,19.237,312,18.088
	c-6.311,0-12.581,1.004-18.576,2.976c-22.32-25.087-60.751-27.33-85.838-5.01c-1.766,1.571-3.439,3.244-5.01,5.01
	c-5.995-1.972-12.265-2.976-18.576-2.976c-33.786,1.149-61.248,27.63-63.624,61.352C87.13,84.935,63.053,114.141,64,147.824z
	 M143.112,464l-29.304-249.072c4.642,1.157,9.407,1.751,14.192,1.768c10.939-0.032,21.663-3.038,31.024-8.696H192v84.496
	c-19.648,10.192-32,25.76-32,43.504s12.352,33.312,32,43.504V464H143.112z M248,376c-39.024,0-72-18.32-72-40s32.976-40,72-40
	s72,18.32,72,40S287.024,376,248,376z M288,285.976c-26.071-7.968-53.929-7.968-80,0V208h80V285.976z M208,464v-77.976
	c26.071,7.968,53.929,7.968,80,0V464H208z M352.888,464H304v-84.496c19.648-10.192,32-25.76,32-43.504s-12.352-33.312-32-43.504V208
	h32.976c9.361,5.658,20.085,8.664,31.024,8.696c4.785-0.017,9.55-0.611,14.192-1.768L352.888,464z M128,94.96h8v-8
	c0-29.152,21.528-52.872,48-52.872c6.133,0.006,12.197,1.298,17.8,3.792l5.736,2.536l3.824-4.976
	c14.603-20.236,42.845-24.802,63.081-10.199c3.924,2.832,7.368,6.275,10.199,10.199l3.824,4.976l5.736-2.536
	c5.603-2.494,11.667-3.786,17.8-3.792c26.472,0,48,23.72,48,52.872v8h8c26.472,0,48,23.712,48,52.864s-21.528,52.872-48,52.872
	c-8.666-0.045-17.131-2.613-24.36-7.392L341.648,192H154.352l-1.992,1.304c-7.229,4.779-15.694,7.347-24.36,7.392
	c-26.472,0-48-23.72-48-52.872S101.528,94.96,128,94.96L128,94.96z"/>
<g>
	
		<linearGradient id="SVGID_2_" gradientUnits="userSpaceOnUse" x1="-50.938" y1="600.125" x2="12.175" y2="600.125" gradientTransform="matrix(8 0 0 -8 399 4941)">
		<stop  offset="0" style="stop-color:#BC4E9C"/>
		<stop  offset="1" style="stop-color:#F80759"/>
	</linearGradient>
	<path style="fill:url(#SVGID_2_);" d="M176,136c13.255,0,24,10.745,24,24h16c0-22.091-17.909-40-40-40s-40,17.909-40,40h16
		C152,146.745,162.745,136,176,136z"/>
	
		<linearGradient id="SVGID_3_" gradientUnits="userSpaceOnUse" x1="-50.938" y1="597.625" x2="12.175" y2="597.625" gradientTransform="matrix(8 0 0 -8 399 4941)">
		<stop  offset="0" style="stop-color:#BC4E9C"/>
		<stop  offset="1" style="stop-color:#F80759"/>
	</linearGradient>
	<path style="fill:url(#SVGID_3_);" d="M256,176c0-8.837,7.163-16,16-16s16,7.163,16,16h16c0-17.673-14.327-32-32-32
		s-32,14.327-32,32H256z"/>
	
		<linearGradient id="SVGID_4_" gradientUnits="userSpaceOnUse" x1="-50.938" y1="608.625" x2="12.175" y2="608.625" gradientTransform="matrix(8 0 0 -8 399 4941)">
		<stop  offset="0" style="stop-color:#BC4E9C"/>
		<stop  offset="1" style="stop-color:#F80759"/>
	</linearGradient>
	<path style="fill:url(#SVGID_4_);" d="M208,72c8.837,0,16,7.163,16,16h16c0-17.673-14.327-32-32-32s-32,14.327-32,32h16
		C192,79.163,199.163,72,208,72z"/>
	
		<linearGradient id="SVGID_5_" gradientUnits="userSpaceOnUse" x1="-50.938" y1="606.125" x2="12.175" y2="606.125" gradientTransform="matrix(8 0 0 -8 399 4941)">
		<stop  offset="0" style="stop-color:#BC4E9C"/>
		<stop  offset="1" style="stop-color:#F80759"/>
	</linearGradient>
	<path style="fill:url(#SVGID_5_);" d="M296,88c13.255,0,24,10.745,24,24h16c0-22.091-17.909-40-40-40s-40,17.909-40,40h16
		C272,98.745,282.745,88,296,88z"/>
	
		<linearGradient id="SVGID_6_" gradientUnits="userSpaceOnUse" x1="-50.938" y1="614.625" x2="12.175" y2="614.625" gradientTransform="matrix(8 0 0 -8 399 4941)">
		<stop  offset="0" style="stop-color:#BC4E9C"/>
		<stop  offset="1" style="stop-color:#F80759"/>
	</linearGradient>
	<path style="fill:url(#SVGID_6_);" d="M56,0C42.745,0,32,10.745,32,24s10.745,24,24,24s24-10.745,24-24S69.255,0,56,0z M56,32
		c-4.418,0-8-3.582-8-8s3.582-8,8-8s8,3.582,8,8S60.418,32,56,32z"/>
	
		<linearGradient id="SVGID_7_" gradientUnits="userSpaceOnUse" x1="-50.938" y1="610.625" x2="12.175" y2="610.625" gradientTransform="matrix(8 0 0 -8 399 4941)">
		<stop  offset="0" style="stop-color:#BC4E9C"/>
		<stop  offset="1" style="stop-color:#F80759"/>
	</linearGradient>
	<path style="fill:url(#SVGID_7_);" d="M88,48h16v16H88V48z"/>
	
		<linearGradient id="SVGID_8_" gradientUnits="userSpaceOnUse" x1="-50.938" y1="616.625" x2="12.175" y2="616.625" gradientTransform="matrix(8 0 0 -8 399 4941)">
		<stop  offset="0" style="stop-color:#BC4E9C"/>
		<stop  offset="1" style="stop-color:#F80759"/>
	</linearGradient>
	<path style="fill:url(#SVGID_8_);" d="M392,0h16v16h-16V0z"/>
	
		<linearGradient id="SVGID_9_" gradientUnits="userSpaceOnUse" x1="-50.938" y1="612.125" x2="12.175" y2="612.125" gradientTransform="matrix(8 0 0 -8 399 4941)">
		<stop  offset="0" style="stop-color:#BC4E9C"/>
		<stop  offset="1" style="stop-color:#F80759"/>
	</linearGradient>
	<path style="fill:url(#SVGID_9_);" d="M428,64c11.046,0,20-8.954,20-20s-8.954-20-20-20s-20,8.954-20,20S416.954,64,428,64z
		 M428,40c2.209,0,4,1.791,4,4s-1.791,4-4,4s-4-1.791-4-4S425.791,40,428,40z"/>
</g>
<g>
</g>
<g>
</g>
<g>
</g>
<g>
</g>
<g>
</g>
<g>
</g>
<g>
</g>
<g>
</g>
<g>
</g>
<g>
</g>
<g>
</g>
<g>
</g>
<g>
</g>
<g>
</g>
<g>
</g>
</svg>
